<svg width="25" height="24" viewBox="0 0 25 24" fill="none" xmlns="http://www.w3.org/2000/svg">
<path d="M12.5 15C13.5609 15 14.5783 14.5786 15.3284 13.8284C16.0786 13.0783 16.5 12.0609 16.5 11V6C16.5 4.93913 16.0786 3.92172 15.3284 3.17157C14.5783 2.42143 13.5609 2 12.5 2C11.4391 2 10.4217 2.42143 9.67157 3.17157C8.92143 3.92172 8.5 4.93913 8.5 6V11C8.5 12.0609 8.92143 13.0783 9.67157 13.8284C10.4217 14.5786 11.4391 15 12.5 15ZM10.5 6C10.5 5.46957 10.7107 4.96086 11.0858 4.58579C11.4609 4.21071 11.9696 4 12.5 4C13.0304 4 13.5391 4.21071 13.9142 4.58579C14.2893 4.96086 14.5 5.46957 14.5 6V11C14.5 11.5304 14.2893 12.0391 13.9142 12.4142C13.5391 12.7893 13.0304 13 12.5 13C11.9696 13 11.4609 12.7893 11.0858 12.4142C10.7107 12.0391 10.5 11.5304 10.5 11V6Z" fill="#03030B"/>
<path d="M19.5 11C19.5 10.7348 19.3946 10.4804 19.2071 10.2929C19.0196 10.1054 18.7652 10 18.5 10C18.2348 10 17.9804 10.1054 17.7929 10.2929C17.6054 10.4804 17.5 10.7348 17.5 11C17.5 12.3261 16.9732 13.5979 16.0355 14.5355C15.0979 15.4732 13.8261 16 12.5 16C11.1739 16 9.90215 15.4732 8.96447 14.5355C8.02678 13.5979 7.5 12.3261 7.5 11C7.5 10.7348 7.39464 10.4804 7.20711 10.2929C7.01957 10.1054 6.76522 10 6.5 10C6.23478 10 5.98043 10.1054 5.79289 10.2929C5.60536 10.4804 5.5 10.7348 5.5 11C5.50197 12.6818 6.10941 14.3068 7.21118 15.5775C8.31295 16.8482 9.8354 17.6797 11.5 17.92V20H9.39C9.15396 20 8.92758 20.0938 8.76068 20.2607C8.59377 20.4276 8.5 20.654 8.5 20.89V21.11C8.5 21.346 8.59377 21.5724 8.76068 21.7393C8.92758 21.9062 9.15396 22 9.39 22H15.61C15.846 22 16.0724 21.9062 16.2393 21.7393C16.4062 21.5724 16.5 21.346 16.5 21.11V20.89C16.5 20.654 16.4062 20.4276 16.2393 20.2607C16.0724 20.0938 15.846 20 15.61 20H13.5V17.92C15.1646 17.6797 16.687 16.8482 17.7888 15.5775C18.8906 14.3068 19.498 12.6818 19.5 11Z" fill="#030411"/>
</svg>
